<svg id="LfM_Logo" data-name="LfM Logo" xmlns="http://www.w3.org/2000/svg" viewBox="0 0 156.32 35.75"><defs><style>.cls-1{fill:#e63264;}.cls-2{fill:#00a096;}.cls-3{fill:#1d1d1b;}.cls-4{fill:#fff;}</style></defs><title>LfM_Logo_horizontal_mit_Claim_RGB_schwarz</title><path d="M43.77,18.06h2.06v1.11H42.54V11.34h1.23Z" transform="translate(-11.34 -9.6)"/><path d="M51.32,19.17H50l-.32-1.55H47.89l-.3,1.55h-1.3l1.92-7.83h1.2Zm-3.18-2.66h1.34l-.67-3.28Z" transform="translate(-11.34 -9.6)"/><path d="M56.09,19.17H55l-1.85-4.65v4.65H51.92V11.34H53L54.86,16V11.34h1.23Z" transform="translate(-11.34 -9.6)"/><path d="M59.29,11.34a1.86,1.86,0,0,1,1.52.65c.53.58.57,1.45.57,3.25s0,2.7-.57,3.28a1.86,1.86,0,0,1-1.52.65h-2V11.34Zm-.76,1.11v5.61h.73a.7.7,0,0,0,.62-.32,5.48,5.48,0,0,0,.27-2.5,5.35,5.35,0,0,0-.27-2.47.7.7,0,0,0-.62-.32Z" transform="translate(-11.34 -9.6)"/><path d="M65.67,12.45H63.61v2.19h1.77v1.11H63.61v2.31h2.06v1.11H62.38V11.34h3.29Z" transform="translate(-11.34 -9.6)"/><path d="M69.81,11.75a2.24,2.24,0,0,1,.55,1.7H69.12a1.35,1.35,0,0,0-.18-.84.76.76,0,0,0-1.08,0,1.2,1.2,0,0,0-.21.77c0,.64.1.84.65,1.06l.92.37c.94.39,1.19.88,1.19,2.2a2.21,2.21,0,0,1-.51,1.73,2.12,2.12,0,0,1-1.52.52,2.06,2.06,0,0,1-1.52-.52,2.14,2.14,0,0,1-.51-1.68h1.23a1.27,1.27,0,0,0,.22.88.76.76,0,0,0,.58.21.73.73,0,0,0,.59-.22,1.28,1.28,0,0,0,.21-.87c0-.84-.13-1.05-.74-1.29l-.93-.38c-.8-.33-1.09-.76-1.09-2a2.12,2.12,0,0,1,.64-1.66,2.21,2.21,0,0,1,2.75,0Z" transform="translate(-11.34 -9.6)"/><path d="M75.76,19.17H74.47l-.32-1.55H72.33L72,19.17h-1.3l1.92-7.83h1.2Zm-3.18-2.66h1.34l-.67-3.28Z" transform="translate(-11.34 -9.6)"/><path d="M80.53,19.17H79.44l-1.85-4.65v4.65H76.36V11.34h1.1L79.3,16V11.34h1.23Z" transform="translate(-11.34 -9.6)"/><path d="M84.92,11.75a2.2,2.2,0,0,1,.55,1.7H84.24a1.35,1.35,0,0,0-.19-.84.66.66,0,0,0-.55-.23.67.67,0,0,0-.53.22,1.2,1.2,0,0,0-.21.77c0,.64.1.84.65,1.06l.93.37c.93.39,1.18.88,1.18,2.2a2.25,2.25,0,0,1-.5,1.73,2.16,2.16,0,0,1-1.53.52A2.08,2.08,0,0,1,82,18.73a2.17,2.17,0,0,1-.51-1.68H82.7a1.22,1.22,0,0,0,.22.88.89.89,0,0,0,1.16,0,1.23,1.23,0,0,0,.21-.87c0-.84-.13-1.05-.74-1.29l-.93-.38c-.79-.33-1.09-.76-1.09-2a2.12,2.12,0,0,1,.64-1.66,2.21,2.21,0,0,1,2.75,0Z" transform="translate(-11.34 -9.6)"/><path d="M89.87,12.45H88.55v6.72H87.32V12.45H86V11.34h3.86Z" transform="translate(-11.34 -9.6)"/><path d="M94.63,19.17H93.34L93,17.62H91.21l-.31,1.55H89.6l1.93-7.83h1.2Zm-3.18-2.66h1.34l-.67-3.28Z" transform="translate(-11.34 -9.6)"/><path d="M96.47,18.06h2.06v1.11H95.24V11.34h1.23Z" transform="translate(-11.34 -9.6)"/><path d="M102.22,12.45H100.9v6.72H99.67V12.45H98.36V11.34h3.86Z" transform="translate(-11.34 -9.6)"/><path d="M108.07,12.45h-2v2.22h1.77v1.11H106v3.39h-1.24V11.34h3.29Z" transform="translate(-11.34 -9.6)"/><path d="M112.89,17.23a2,2,0,0,1-.54,1.45,2,2,0,0,1-3.45-1.45V11.34h1.23v5.85c0,.66.27,1,.77,1s.76-.3.76-1V11.34h1.23Zm-2.41-6.53h-1.1V9.6h1.1Zm1.93,0h-1.1V9.6h1.1Z" transform="translate(-11.34 -9.6)"/><path d="M116,11.34c1.43,0,2,.69,2,2.31,0,1-.2,1.66-.92,2l1.17,3.48H117L116,16h-.69v3.21H114V11.34Zm-.75,1.11v2.4H116c.66,0,.76-.55.76-1.2s-.1-1.2-.76-1.2Z" transform="translate(-11.34 -9.6)"/><path d="M126.3,19.17h-1.23V14.29L124,17.5h-.68l-1-3.16v4.83H121V11.34h1.11l1.52,4.11,1.51-4.11h1.12Z" transform="translate(-11.34 -9.6)"/><path d="M130.8,12.45h-2.06v2.19h1.77v1.11h-1.77v2.31h2.06v1.11h-3.29V11.34h3.29Z" transform="translate(-11.34 -9.6)"/><path d="M133.75,11.34a1.84,1.84,0,0,1,1.51.65c.53.58.58,1.45.58,3.25s-.05,2.7-.58,3.28a1.84,1.84,0,0,1-1.51.65h-2V11.34ZM133,12.45v5.61h.72a.71.71,0,0,0,.63-.32,5.69,5.69,0,0,0,.26-2.5,5.55,5.55,0,0,0-.26-2.47.71.71,0,0,0-.63-.32Z" transform="translate(-11.34 -9.6)"/><path d="M138.07,19.17h-1.23V11.34h1.23Z" transform="translate(-11.34 -9.6)"/><path d="M142.57,12.45h-2.06v2.19h1.77v1.11h-1.77v2.31h2.06v1.11h-3.29V11.34h3.29Z" transform="translate(-11.34 -9.6)"/><path d="M147.69,19.17h-1.08l-1.85-4.65v4.65h-1.23V11.34h1.1L146.46,16V11.34h1.23Z" transform="translate(-11.34 -9.6)"/><path d="M154.93,19.17h-1.09L152,14.52v4.65h-1.23V11.34h1.1L153.7,16V11.34h1.23Z" transform="translate(-11.34 -9.6)"/><path d="M158.12,11.34c1.43,0,2,.69,2,2.31,0,1-.19,1.66-.91,2l1.17,3.48h-1.29l-1-3.21h-.7v3.21h-1.23V11.34Zm-.75,1.11v2.4h.76c.66,0,.76-.55.76-1.2s-.1-1.2-.76-1.2Z" transform="translate(-11.34 -9.6)"/><path d="M161.89,11.34l.7,5.94,1-5.94h1.21l1,5.94.69-5.94h1.22l-1.34,7.83h-1.14l-1-6-1,6H162l-1.34-7.83Z" transform="translate(-11.34 -9.6)"/><path d="M43.87,21.91H42.52v6.44h1.35a1.36,1.36,0,0,0,1-.38c.39-.41.46-.84.46-2.84s-.07-2.43-.46-2.84A1.32,1.32,0,0,0,43.87,21.91Zm-.72.57h.7a.69.69,0,0,1,.54.21h0c.25.27.3.61.3,2.44s0,2.16-.3,2.44a.72.72,0,0,1-.54.2h-.7Z" transform="translate(-11.34 -9.6)"/><path d="M48.34,24a1.23,1.23,0,0,0-1.7,0c-.32.35-.37,1-.37,2.05s.06,1.69.38,2a1.23,1.23,0,0,0,1.7,0,1.27,1.27,0,0,0,.35-1v-.05h-.59v.05a.87.87,0,0,1-.18.61.6.6,0,0,1-.43.16.55.55,0,0,1-.42-.19c-.18-.21-.21-.62-.22-1.52h1.85v-.05c0-1.13-.05-1.77-.37-2.12Zm-1.27.39h0a.54.54,0,0,1,.42-.19.5.5,0,0,1,.41.19c.17.2.21.58.22,1.28H46.86C46.87,24.93,46.91,24.57,47.07,24.38Z" transform="translate(-11.34 -9.6)"/><path d="M50.47,23.93a1.06,1.06,0,0,0-.14.15v-.36h-.59v4.63h.6v-3.3a.77.77,0,0,1,.83-.83h.16v-.57h0A1.14,1.14,0,0,0,50.47,23.93Z" transform="translate(-11.34 -9.6)"/><polygon points="44.63 15.94 43.33 12.31 42.72 12.31 42.72 18.75 43.35 18.75 43.35 14 44.4 16.99 44.85 16.99 45.93 13.89 45.93 18.75 46.55 18.75 46.55 12.31 45.94 12.31 44.63 15.94"/><path d="M61.05,24a1.1,1.1,0,0,0-.85-.34,1.08,1.08,0,0,0-.84.34C59,24.34,59,25,59,26s.06,1.69.38,2a1.12,1.12,0,0,0,.85.35,1.14,1.14,0,0,0,.86-.33,1.3,1.3,0,0,0,.34-1v-.05h-.59v.05a.87.87,0,0,1-.18.61.6.6,0,0,1-.43.16.53.53,0,0,1-.41-.19c-.19-.21-.22-.62-.22-1.52h1.85v-.05c0-1.13-.06-1.77-.38-2.12Zm-1.26.39h0a.54.54,0,0,1,.82,0c.17.2.21.58.22,1.28H59.58C59.59,24.93,59.62,24.57,59.79,24.38Z" transform="translate(-11.34 -9.6)"/><rect x="51.04" y="12.44" width="0.74" height="0.74"/><rect x="51.12" y="14.12" width="0.6" height="4.63"/><path d="M65.55,23.65a.9.9,0,0,0-.55.17,1.36,1.36,0,0,0-.18.17v-.27h-.59v4.63h.6V24.89c0-.43.22-.7.58-.7s.58.27.58.7v3.46h.59V24.9a1.23,1.23,0,0,0-.29-.93A.93.93,0,0,0,65.55,23.65Z" transform="translate(-11.34 -9.6)"/><path d="M69.44,27.17c0,.43-.22.7-.58.7s-.57-.27-.57-.7V23.72h-.6v3.45a1.24,1.24,0,0,0,.29.92.93.93,0,0,0,.75.33.94.94,0,0,0,.54-.17,1.41,1.41,0,0,0,.18-.17v.27H70V23.72h-.6Z" transform="translate(-11.34 -9.6)"/><path d="M72.53,23.65a.9.9,0,0,0-.55.17l-.17.17v-.27h-.59v4.63h.6V24.89c0-.43.22-.7.58-.7s.57.27.57.7v3.46h.6V24.9a1.27,1.27,0,0,0-.29-.93A1,1,0,0,0,72.53,23.65Z" transform="translate(-11.34 -9.6)"/><path d="M76.37,24a.59.59,0,0,0-.17-.15.89.89,0,0,0-.54-.16,1,1,0,0,0-.74.33c-.31.34-.36.9-.36,2s0,1.68.36,2a1,1,0,0,0,.74.32.83.83,0,0,0,.54-.16l.16-.14v.44c0,.6-.06.86-.2,1a.5.5,0,0,1-.4.18.55.55,0,0,1-.41-.16.78.78,0,0,1-.18-.61v-.05h-.59v.05a1.32,1.32,0,0,0,.32,1,1.26,1.26,0,0,0,1.7,0c.27-.3.35-.63.35-1.4V23.72h-.58Zm-.2.39a.77.77,0,0,1,.19.58v2.15a.77.77,0,0,1-.19.58.57.57,0,0,1-.4.16.53.53,0,0,1-.39-.18c-.19-.22-.22-.6-.22-1.63s0-1.42.22-1.63h0a.51.51,0,0,1,.39-.19A.57.57,0,0,1,76.17,24.35Z" transform="translate(-11.34 -9.6)"/><path d="M79.56,25.85,79,25.53a1,1,0,0,1-.4-.32.78.78,0,0,1-.08-.37.71.71,0,0,1,.18-.49.57.57,0,0,1,.44-.16.51.51,0,0,1,.4.16.81.81,0,0,1,.19.63V25h.59V25A1.38,1.38,0,0,0,80,24a1.13,1.13,0,0,0-.84-.31,1.2,1.2,0,0,0-.85.32,1.32,1.32,0,0,0-.24,1.49,1.74,1.74,0,0,0,.61.55l.57.31a1.15,1.15,0,0,1,.43.37.86.86,0,0,1,.12.47.72.72,0,0,1-.19.52.63.63,0,0,1-.48.19.59.59,0,0,1-.42-.17.83.83,0,0,1-.22-.63V27h-.59v.05a1.38,1.38,0,0,0,.37,1,1.18,1.18,0,0,0,.86.34,1.28,1.28,0,0,0,.9-.36,1.34,1.34,0,0,0,.37-.92,1.45,1.45,0,0,0-.19-.74A1.58,1.58,0,0,0,79.56,25.85Z" transform="translate(-11.34 -9.6)"/><path d="M81.8,22.21a1.24,1.24,0,0,0-.36,1v.55h-.55v.49h.55v4.14H82V24.21h.77v-.49H82v-.55a.63.63,0,0,1,.72-.71h0v-.55h0A1.4,1.4,0,0,0,81.8,22.21Z" transform="translate(-11.34 -9.6)"/><path d="M84.31,23.93a1.06,1.06,0,0,0-.14.15v-.36h-.59v4.63h.6v-3.3a.77.77,0,0,1,.83-.83h.16v-.57h0A1.14,1.14,0,0,0,84.31,23.93Z" transform="translate(-11.34 -9.6)"/><path d="M87.59,24a1.22,1.22,0,0,0-1.69,0c-.32.35-.38,1-.38,2.05s.06,1.69.38,2a1.25,1.25,0,0,0,1.71,0,1.3,1.3,0,0,0,.34-1v-.05h-.59v.05a.87.87,0,0,1-.18.61.58.58,0,0,1-.43.16.53.53,0,0,1-.41-.19c-.19-.21-.22-.62-.22-1.52H88v-.05c0-1.13-.06-1.77-.38-2.12Zm-1.26.39h0a.51.51,0,0,1,.42-.19.48.48,0,0,1,.4.19c.17.2.21.58.22,1.28H86.12C86.13,24.93,86.16,24.57,86.33,24.38Z" transform="translate(-11.34 -9.6)"/><rect x="77.66" y="14.12" width="0.6" height="4.63"/><rect x="77.59" y="12.44" width="0.74" height="0.74"/><path d="M92.09,23.65a.9.9,0,0,0-.55.17,1.29,1.29,0,0,0-.17.15V21.91h-.59v6.44h.59V24.89c0-.43.23-.7.58-.7s.58.27.58.7v3.46h.6V24.9a1.27,1.27,0,0,0-.29-.93A1,1,0,0,0,92.09,23.65Z" transform="translate(-11.34 -9.6)"/><path d="M96.19,24a1.1,1.1,0,0,0-.85-.34,1.08,1.08,0,0,0-.84.34c-.32.35-.38,1-.38,2.05s.06,1.69.38,2a1.12,1.12,0,0,0,.85.35,1.1,1.1,0,0,0,.85-.33,1.27,1.27,0,0,0,.35-1v-.05H96v.05a.87.87,0,0,1-.18.61.6.6,0,0,1-.43.16.55.55,0,0,1-.42-.19c-.18-.21-.21-.62-.22-1.52h1.86v-.05c0-1.13-.06-1.77-.38-2.12Zm-1.26.39h0a.54.54,0,0,1,.82,0c.17.2.21.58.22,1.28H94.72C94.72,24.93,94.76,24.57,94.93,24.38Z" transform="translate(-11.34 -9.6)"/><rect x="86.25" y="14.12" width="0.6" height="4.63"/><rect x="86.18" y="12.44" width="0.74" height="0.74"/><path d="M100.11,27.09V24.21h.77v-.49h-.77V22.39h-.6v1.33H99v.49h.55v2.88a1.24,1.24,0,0,0,.36,1,1.41,1.41,0,0,0,1,.3h0V27.8h0C100.35,27.8,100.11,27.58,100.11,27.09Z" transform="translate(-11.34 -9.6)"/><polygon points="93.15 17.62 92.42 14.16 92.41 14.12 91.76 14.12 92.84 18.71 92.85 18.75 93.44 18.75 94.52 14.18 94.53 14.12 93.88 14.12 93.15 17.62"/><path d="M107.5,23.65a1.08,1.08,0,0,0-.84.34c-.32.35-.38,1-.38,2.05s.06,1.69.38,2a1.12,1.12,0,0,0,.85.35,1.14,1.14,0,0,0,.85-.33,1.27,1.27,0,0,0,.35-1v-.05h-.59v.05a.87.87,0,0,1-.18.61.6.6,0,0,1-.43.16.57.57,0,0,1-.42-.19c-.18-.2-.21-.62-.21-1.52h1.85v-.05c0-1.13-.06-1.77-.38-2.12A1.1,1.1,0,0,0,107.5,23.65Zm-.41.73h0a.54.54,0,0,1,.82,0c.17.19.21.58.22,1.28h-1.25C106.89,24.93,106.92,24.57,107.09,24.38Z" transform="translate(-11.34 -9.6)"/><path d="M110.48,23.93a1.06,1.06,0,0,0-.14.15v-.36h-.59v4.63h.6v-3.3a.77.77,0,0,1,.83-.83h.16v-.57h0A1.14,1.14,0,0,0,110.48,23.93Z" transform="translate(-11.34 -9.6)"/><path d="M114.16,24a1,1,0,0,0-.74-.33.89.89,0,0,0-.54.17.83.83,0,0,0-.18.16v-.26h-.59v6.43h.6v-2a.86.86,0,0,0,.71.32.89.89,0,0,0,.74-.34c.3-.35.35-1,.35-2s-.05-1.71-.35-2.06ZM113.92,26c0,1,0,1.44-.22,1.65a.5.5,0,0,1-.4.18.57.57,0,0,1-.4-.15.79.79,0,0,1-.19-.59v-2.2a.77.77,0,0,1,.19-.58h0a.5.5,0,0,1,.39-.16.53.53,0,0,1,.4.19C113.89,24.6,113.92,25.08,113.92,26Z" transform="translate(-11.34 -9.6)"/><path d="M116.05,22.21a1.24,1.24,0,0,0-.37,1v.55h-.55v.49h.55v4.14h.6V24.21h.77v-.49h-.77v-.55a.63.63,0,0,1,.72-.71h0v-.55h0A1.36,1.36,0,0,0,116.05,22.21Z" transform="translate(-11.34 -9.6)"/><path d="M118.38,27.09V21.91h-.6v5.18a1.25,1.25,0,0,0,.35,1,1.28,1.28,0,0,0,.94.3h.05V27.8h-.05C118.6,27.8,118.38,27.57,118.38,27.09Z" transform="translate(-11.34 -9.6)"/><rect x="108.48" y="12.44" width="0.74" height="0.74"/><rect x="108.55" y="14.12" width="0.6" height="4.63"/><path d="M123.91,25V25a1.34,1.34,0,0,0-.34-1,1.09,1.09,0,0,0-.83-.29,1.06,1.06,0,0,0-.88.38,3.31,3.31,0,0,0-.35,2,3.28,3.28,0,0,0,.35,2,1.1,1.1,0,0,0,.88.38,1.13,1.13,0,0,0,.83-.31,1.34,1.34,0,0,0,.34-1v-.05h-.59v.05a.85.85,0,0,1-.17.61.59.59,0,0,1-.4.16.52.52,0,0,1-.43-.18c-.19-.24-.21-.69-.21-1.65s0-1.43.21-1.66a.5.5,0,0,1,.43-.19.53.53,0,0,1,.41.17.82.82,0,0,1,.16.61V25Z" transform="translate(-11.34 -9.6)"/><path d="M126.18,23.65a.9.9,0,0,0-.55.17,1.29,1.29,0,0,0-.17.15V21.91h-.59v6.44h.59V24.89c0-.43.23-.7.58-.7s.58.27.58.7v3.46h.6V24.9a1.27,1.27,0,0,0-.29-.93A1,1,0,0,0,126.18,23.65Z" transform="translate(-11.34 -9.6)"/><path d="M129.1,27.09V24.21h.77v-.49h-.77V22.39h-.6v1.33H128v.49h.55v2.88a1.27,1.27,0,0,0,.35,1,1.45,1.45,0,0,0,1,.3h0V27.8h0C129.33,27.8,129.1,27.58,129.1,27.09Z" transform="translate(-11.34 -9.6)"/><path d="M132.59,24a1.1,1.1,0,0,0-.85-.34,1.08,1.08,0,0,0-.84.34c-.32.35-.38,1-.38,2.05s.06,1.69.38,2a1.12,1.12,0,0,0,.85.35,1.14,1.14,0,0,0,.86-.33,1.3,1.3,0,0,0,.34-1v-.05h-.59v.05a.87.87,0,0,1-.18.61.6.6,0,0,1-.43.16.53.53,0,0,1-.41-.19c-.19-.21-.22-.62-.22-1.52H133v-.05c0-1.13-.06-1.77-.38-2.12Zm-1.26.39h0a.54.54,0,0,1,.82,0c.17.2.21.58.22,1.28h-1.25C131.13,24.93,131.16,24.57,131.33,24.38Z" transform="translate(-11.34 -9.6)"/><path d="M134.74,27.09V24.21h.77v-.49h-.77V22.39h-.6v1.33h-.55v.49h.55v2.88a1.27,1.27,0,0,0,.35,1,1.42,1.42,0,0,0,1,.3h0V27.8h0C135,27.8,134.74,27.58,134.74,27.09Z" transform="translate(-11.34 -9.6)"/><rect x="125.02" y="17.98" width="0.77" height="0.77"/><rect class="cls-1" x="34.02" y="28.35" width="2.83" height="17.01" transform="translate(59.53 64.1) rotate(180)"/><rect class="cls-2" x="34.02" y="11.34" width="2.83" height="17.01" transform="translate(59.53 30.08) rotate(180)"/><rect class="cls-3" y="17.1" width="17.01" height="1.64"/><rect class="cls-4" y="15.51" width="17.01" height="1.59"/><rect class="cls-3" y="14.02" width="17.01" height="1.49"/><rect class="cls-3" y="11.2" width="17.01" height="1.33"/><rect class="cls-4" y="9.86" width="17.01" height="1.33"/><rect class="cls-3" y="8.68" width="17.01" height="1.18"/><rect class="cls-3" y="6.48" width="17.01" height="1.02"/><rect class="cls-3" y="4.59" width="17.01" height="0.87"/><rect class="cls-3" y="3.01" width="17.01" height="0.71"/><rect class="cls-3" y="1.74" width="17.01" height="0.56"/><rect class="cls-4" y="2.3" width="17.01" height="0.71"/><rect class="cls-4" y="3.72" width="17.01" height="0.87"/><rect class="cls-4" y="5.46" width="17.01" height="1.02"/><rect class="cls-4" y="7.5" width="17.01" height="1.18"/><rect class="cls-4" y="12.53" width="17.01" height="1.49"/></svg>